<svg viewBox="0 0 98 24" xmlns="http://www.w3.org/2000/svg" class="w-full fill-current"><path clip-rule="evenodd" d="M29.276.713A2.234 2.234 0 0 1 30.931 0a2.27 2.27 0 0 1 1.672.713 2.221 2.221 0 0 1 .7 1.636 2.373 2.373 0 0 1-2.36 2.36 2.36 2.36 0 0 1-2.349-2.36 2.216 2.216 0 0 1 .682-1.636zm-.193 6.774h3.623v16.06h-3.623zm-10.427-.338a6.237 6.237 0 0 1 6.587 6.587v9.81h-3.725v-9.122a4.106 4.106 0 0 0-.948-2.844 3.307 3.307 0 0 0-2.572-1.038 3.893 3.893 0 0 0-2.07.604 4.577 4.577 0 0 0-1.577 1.575l.097.562v10.264h-3.677v-9.123a4.033 4.033 0 0 0-.96-2.832 3.25 3.25 0 0 0-2.505-1.05 3.942 3.942 0 0 0-2.162.604 4.05 4.05 0 0 0-1.485 1.612v10.789H0V7.487h3.623v2.107a6.358 6.358 0 0 1 1.992-1.745 5.724 5.724 0 0 1 2.94-.725c2.238 0 3.848.868 4.83 2.603a7.903 7.903 0 0 1 2.313-1.83 6.129 6.129 0 0 1 2.958-.748zm60.437 16.398V.53H75.47v23.016zm18.76-8.737a8.484 8.484 0 0 1-.127 1.588H85.487c.135 1.18.69 2.27 1.564 3.074a4.68 4.68 0 0 0 3.206 1.104 5.603 5.603 0 0 0 2.506-.555 3.9 3.9 0 0 0 1.702-1.485l2.923 1.865a6.117 6.117 0 0 1-2.802 2.542 9.95 9.95 0 0 1-4.395.924 8.326 8.326 0 0 1-4.227-1.099 8.133 8.133 0 0 1-3.018-3.019 8.453 8.453 0 0 1-1.117-4.305 8.271 8.271 0 0 1 1.098-4.226 8.042 8.042 0 0 1 3.02-3.019 8.284 8.284 0 0 1 4.177-1.093 7.746 7.746 0 0 1 3.913 1.015 7.463 7.463 0 0 1 2.795 2.771 7.559 7.559 0 0 1 1.02 3.918zm-12.239-1.207h8.387a3.52 3.52 0 0 0-1.287-2.463 4.19 4.19 0 0 0-2.795-.96 4.226 4.226 0 0 0-2.747.911 4.697 4.697 0 0 0-1.558 2.5zM43.876 7.197c-4.764 0-8.194 3.767-8.194 8.398S39.112 24 43.93 23.97c5.32 0 7.855-3.333 10.493-7.409 2.947-4.564 5.658-6.037 8.677-6.037 2.813 0 4.8 2.294 4.8 5.071s-1.914 5.072-4.728 5.072-4.734-2.325-4.734-5.072a7.655 7.655 0 0 1 .133-1.78 16.216 16.216 0 0 0-3.32 4.389A7.547 7.547 0 0 0 62.653 24c2.228 0 4.25-.966 5.247-2.572v2.155h3.725L71.546.531h-3.659v9.244c-.996-1.612-3.242-2.572-5.657-2.572-3.84 0-7.04 1.787-10.662 7.1-2.88 4.293-4.704 6.376-7.511 6.376s-4.661-2.324-4.661-5.072c0-2.747 1.847-5.077 4.66-5.077 2.814 0 4.734 2.397 4.734 5.21a40.167 40.167 0 0 1 3.738-5.21V.53h-3.714V9.77a5.966 5.966 0 0 0-4.938-2.572z"></path></svg>